<?xml version="1.0" encoding="UTF-8" standalone="no"?>
<!-- Created with Inkscape (http://www.inkscape.org/) -->

<svg
   width="261.5976"
   height="296.36401"
   viewBox="0 0 69.214364 78.412978"
   version="1.1"
   id="svg1"
   xml:space="preserve"
   xmlns="http://www.w3.org/2000/svg"
   xmlns:svg="http://www.w3.org/2000/svg"><defs
     id="defs1" /><path
     style="fill:#1e87f0;fill-opacity:1;stroke-width:3.7979;stroke-dasharray:none"
     d="m 39.072969,78.109 c 7.388273,-1.393537 13.615252,-4.927442 18.913053,-10.733449 5.007659,-5.488034 8.457989,-12.242674 10.091809,-19.756534 1.080093,-4.967294 1.135207,-6.308451 1.13589,-27.640668 L 69.214362,0.00533286 67.406187,0.179951 C 58.882194,1.0031442 51.578752,8.2460818 49.412538,18.024536 48.972401,20.011354 48.911721,21.234587 48.755642,31.266729 48.573487,42.975092 48.520782,43.575056 47.32229,47.58331 43.994399,58.713149 35.832929,66.806886 26.059913,68.669229 23.189868,69.216145 18.073935,69.024191 15.44631,68.271003 13.246109,67.640331 10.467082,66.395075 8.7932667,65.289836 l -1.218995,-0.804916 0.4174806,0.737825 c 0.6438963,1.137973 4.2781837,4.714291 6.6932537,6.586485 3.598526,2.789626 7.975578,4.877136 12.462353,5.943562 2.940846,0.698988 9.128384,0.883802 11.92561,0.356208 z"
     id="path24" /><path
     d="m 0.02733058,34.272275 c 0.0346025,5.305501 0.10236178,8.300448 0.20396775,9.047967 C 2.4877862,59.919901 21.80159,68.026994 34.574292,57.966256 c 1.22587,-0.965591 4.474836,-4.411618 4.264594,-4.411618 -0.09448,0 -0.70039,0.12324 -1.459153,0.373374 C 30.330625,56.251877 15.044852,50.938387 0.02733058,34.272275 Z"
     style="fill:#1e87f0;fill-opacity:1;stroke-width:3.35617"
     id="path35" /><path
     d="M 19.204847,26.217745 0,13.90496 v 6.112767 c 0,3.071781 0.01121618,5.608699 0.02733039,7.88352 C 6.885862,33.932643 13.093601,40.028747 19.650236,44.207099 19.272437,42.81557 19.228635,34.703691 19.228635,28.710338 c 0,-1.002756 -0.01533,-1.684695 -0.02379,-2.492593 z"
     style="fill:#1e87f0;fill-opacity:1;stroke-width:3.22031"
     id="path34" /><path
     d="M 0,0 V 7.4175315 L 19.204847,19.601458 C 19.152505,14.983225 18.916727,13.304131 18.061009,11.161866 15.65673,5.1428427 8.9760488,0.66045989 1.6003616,0.1176511 Z"
     style="fill:#1e87f0;fill-opacity:1;stroke-width:3.09586"
     id="path33" /></svg>
